<svg width="56" height="56" viewBox="0 0 56 56" fill="none" xmlns="http://www.w3.org/2000/svg">
<path d="M42.3055 32.4536L5.8675 12.5536C2.5035 10.5916 1.3815 6.6676 3.3455 3.3036C5.3075 0.219597 9.5115 -0.900403 12.8755 0.781597L49.3135 20.6816C52.6775 22.6436 53.7975 26.5676 51.8355 29.9316C50.1535 33.2956 45.6695 34.4176 42.3055 32.4536ZM25.4875 44.5076L6.1475 33.8556C2.7835 31.8956 1.6635 27.9696 3.6255 24.6056C5.5875 21.5236 9.7915 20.4016 13.1555 22.0836L32.4955 32.7356C35.8595 34.6956 36.9795 38.6216 35.0175 41.9856C33.0555 45.0676 28.8515 46.1916 25.4875 44.5076Z" fill="#00BEFF"/>
<path opacity="0.5" d="M2.50424 48.9916V28.2516C2.49516 27.3288 2.67021 26.4134 3.01918 25.5591C3.36815 24.7047 3.884 23.9285 4.53658 23.276C5.18915 22.6234 5.96533 22.1075 6.81969 21.7586C7.67404 21.4096 8.58941 21.2345 9.51224 21.2436C10.4349 21.2345 11.3501 21.4095 12.2043 21.7584C13.0586 22.1072 13.8346 22.6229 14.4872 23.2753C15.1397 23.9276 15.6556 24.7036 16.0047 25.5577C16.3538 26.4118 16.5291 27.327 16.5202 28.2496V48.9916C16.5293 49.9145 16.3543 50.8298 16.0053 51.6842C15.6563 52.5385 15.1405 53.3147 14.4879 53.9673C13.8353 54.6199 13.0592 55.1357 12.2048 55.4847C11.3505 55.8336 10.4351 56.0087 9.51224 55.9996C8.58941 56.0087 7.67404 55.8336 6.81969 55.4847C5.96533 55.1357 5.18915 54.6199 4.53658 53.9673C3.884 53.3147 3.36815 52.5385 3.01918 51.6842C2.67021 50.8298 2.49516 49.9145 2.50424 48.9916Z" fill="#00BEFF"/>
</svg>
