<svg width="56" height="56" viewBox="0 0 56 56" fill="none" xmlns="http://www.w3.org/2000/svg">
<g clip-path="url(#clip0_21_313)">
<path d="M52.4554 47.6473H4.70413C2.83893 47.6473 1.27783 46.1764 1.27783 44.2636V11.2274C1.27783 9.36274 2.79584 7.80115 4.70413 7.80115H52.4554C54.3206 7.80115 55.8817 9.31916 55.8817 11.2274V44.22C55.8381 46.1714 54.3201 47.6473 52.4554 47.6473Z" fill="#F2F2F2"/>
<path opacity="0.1" d="M8.08693 47.6471L28.5145 32.6963L28.6447 31.8296L7.61048 16.6931L7.56689 46.9047L8.08693 47.6471Z" fill="#221F1F"/>
<path d="M4.70413 47.6472C2.79584 47.6472 1.27783 46.1763 1.27783 44.2635V11.1793C1.27783 9.27101 2.79584 8.92383 4.70413 8.92383C6.61241 8.92383 8.13043 9.3141 8.13043 11.1793V47.6413L4.70413 47.6472Z" fill="#D44C3D"/>
<path d="M4.70413 9.44942C7.13295 9.44942 7.60989 10.1923 7.60989 11.1844V47.1699H4.70413C3.09966 47.1691 1.79918 45.8686 1.79836 44.2641V11.1844C1.75478 10.1433 2.27531 9.44942 4.70413 9.44942ZM4.70413 8.97247C2.79584 8.97247 1.27783 9.36275 1.27783 11.1844V44.22C1.27783 46.1714 2.79584 47.6463 4.70413 47.6463H8.13043V11.1844C8.08684 9.31966 6.61242 8.97247 4.70413 8.97247ZM52.4554 9.44942C54.6672 9.44942 55.3611 9.88328 55.3611 11.0977V44.3072C55.3603 45.9117 54.0598 47.2122 52.4554 47.213H49.5496V11.0977C49.506 9.8397 50.243 9.44942 52.4554 9.44942ZM52.4554 8.97247C50.5471 8.97247 49.0291 9.23249 49.0291 11.1021V47.6949H52.4554C54.3636 47.6949 55.8817 46.1769 55.8817 44.2686V11.0541C55.8381 9.18891 54.3201 8.97247 52.4554 8.97247Z" fill="#D44C3D"/>
<path d="M52.4546 47.6467H49.0283V11.0971C49.0283 9.18879 50.5463 8.96741 52.4546 8.96741C54.3629 8.96741 55.8809 9.22743 55.8809 11.0971V44.3066C55.8373 46.1718 54.3193 47.6467 52.4546 47.6467Z" fill="#D44C3D"/>
<path opacity="0.08" d="M37.8395 47.6474L1.58203 12.6153L3.49032 13.3958L28.7314 31.5684L55.8823 11.6559V44.3018C55.8823 46.167 54.3642 47.6846 52.456 47.6846L37.8395 47.6474Z" fill="#221F1F"/>
<path d="M28.5136 32.7387L2.75151 14.0456C1.2335 12.9178 0.799643 10.7495 1.92738 9.23153C3.05512 7.71351 5.22342 7.36682 6.78452 8.49406L28.5518 24.324L50.4542 8.27713C51.9782 7.14989 54.1078 7.49658 55.2301 9.05818C56.3579 10.5762 56.0107 12.7014 54.4496 13.8291L28.5136 32.7387Z" fill="#D44C3D"/>
<path d="M52.4548 8.14785C53.3662 8.14785 54.2765 8.58171 54.8401 9.36226C55.7514 10.6633 55.4909 12.485 54.1893 13.4393L28.5144 32.1324L3.05535 13.6563C1.75427 12.7019 1.40708 10.8372 2.31244 9.57919C2.83248 8.79864 3.74873 8.3212 4.74126 8.3212C5.39205 8.3212 5.99925 8.49454 6.4762 8.88482L28.2053 24.6721L28.5089 24.8455L28.8125 24.6721L50.6714 8.62529C51.235 8.32169 51.7996 8.14785 52.4548 8.14785ZM52.4548 7.62781C51.7615 7.62781 51.0186 7.80116 50.4599 8.2786L28.552 24.3245L6.74167 8.45096C6.17804 8.01759 5.44058 7.80066 4.70362 7.80066C3.61402 7.84425 2.53531 8.3207 1.88453 9.23696C0.794925 10.755 1.23374 12.8802 2.75125 14.0079L28.5134 32.7441L54.4548 13.8346C55.9734 12.7238 56.3208 10.6004 55.2353 9.06361C54.5419 8.15231 53.5004 7.62732 52.4598 7.62732L52.4548 7.62781Z" fill="#D44C3D"/>
</g>
<defs>
<clipPath id="clip0_21_313">
<rect width="56" height="40.25" fill="white" transform="translate(0 7.58887)"/>
</clipPath>
</defs>
</svg>
