<svg width="56" height="56" viewBox="0 0 56 56" fill="none" xmlns="http://www.w3.org/2000/svg">
<path fill-rule="evenodd" clip-rule="evenodd" d="M35.9113 42.0192L36.1253 41.8746L48.3128 56L36.2389 52.8183C33.6576 53.6777 30.8971 54.1428 28.0282 54.1428C13.6533 54.1428 2 42.4627 2 28.0542C2 21.286 4.57127 15.1197 8.78836 10.4833L15.3814 18.0851C13.2465 20.8173 11.974 24.2588 11.974 27.9982C11.974 36.8851 19.162 44.0894 28.0282 44.0894C30.8931 44.0894 33.5827 43.3372 35.9113 42.0192ZM19.9973 3.23117C22.5912 2.39012 25.3014 1.96308 28.0282 1.96578C42.4031 1.96578 54.0563 13.6461 54.0563 28.0544C54.0563 34.7771 51.5193 40.9063 47.3524 45.5317L40.7073 37.8697C42.8224 35.1441 44.082 31.7186 44.082 27.9982C44.082 19.1113 36.8946 11.907 28.0282 11.907C25.1769 11.907 22.4994 12.6518 20.1787 13.9582L19.931 14.1254L7.74355 0L19.9939 3.22828L19.9973 3.23117Z" fill="#0047A5"/>
<path d="M33.2739 28.2284C33.227 28.917 33.0449 29.5897 32.7378 30.2079C32.4308 30.826 32.0049 31.3776 31.4845 31.8311C30.4329 32.7476 29.0604 33.2093 27.6687 33.1146C24.7698 32.9135 22.5826 30.404 22.7827 27.5086C22.8296 26.8199 23.0118 26.1473 23.3188 25.5291C23.6259 24.911 24.0517 24.3594 24.5721 23.9059C25.6237 22.9894 26.9962 22.5277 28.388 22.6224C31.2868 22.8235 33.474 25.333 33.2739 28.2284Z" fill="#00BBF0"/>
</svg>
