<svg width="56" height="56" viewBox="0 0 56 56" fill="none" xmlns="http://www.w3.org/2000/svg">
<g clip-path="url(#clip0_21_248)">
<path d="M34.8917 37.5118H2.69005C1.21106 37.5118 0.000976562 36.3017 0.000976562 34.8227C0.000976562 33.3438 1.21106 32.1337 2.69005 32.1337H34.8917C36.3707 32.1337 37.5808 33.3438 37.5808 34.8227C37.5808 36.3017 36.3707 37.5118 34.8917 37.5118Z" fill="#99CFAC"/>
<path d="M28.034 53.9827C25.4121 53.9827 22.7903 53.5793 20.3029 52.8398C18.8911 52.3692 18.0844 50.8903 18.555 49.4785C19.0256 48.0667 20.5046 47.26 21.9163 47.7306C23.8659 48.3356 25.9499 48.6718 28.034 48.6718C37.1768 48.6718 45.1096 42.823 47.7314 34.0835C48.1348 32.6718 49.681 31.8651 51.0928 32.2684C52.5045 32.6718 53.3113 34.218 52.9079 35.6298C49.4793 46.5877 39.5298 53.9827 28.034 53.9827Z" fill="#49B881"/>
<path d="M53.3112 23.8655H21.1095C19.6305 23.8655 18.4204 22.6554 18.4204 21.1764C18.4204 19.6974 19.6305 18.4874 21.1095 18.4874H53.3112C54.7902 18.4874 56.0002 19.6974 56.0002 21.1764C56.0002 22.6554 54.7902 23.8655 53.3112 23.8655Z" fill="#99CFAC"/>
<path d="M5.71543 23.865C5.44652 23.865 5.17761 23.7978 4.9087 23.7305C3.49694 23.3272 2.69022 21.781 3.09358 20.3692C6.52215 9.41122 16.4717 2.01627 28.0347 2.01627C30.6566 2.01627 33.2784 2.41963 35.7658 3.15912C37.1776 3.62971 37.9843 5.1087 37.5137 6.52047C37.0431 7.93223 35.5642 8.73895 34.1524 8.26836C32.2028 7.66332 30.1188 7.32719 28.0347 7.32719C18.8919 7.32719 10.9591 13.1759 8.33727 21.9154C7.93391 23.1255 6.85828 23.865 5.71543 23.865Z" fill="#49B881"/>
<path d="M43.9669 13.6474C45.452 13.6474 46.656 12.4434 46.656 10.9583C46.656 9.47317 45.452 8.26923 43.9669 8.26923C42.4818 8.26923 41.2778 9.47317 41.2778 10.9583C41.2778 12.4434 42.4818 13.6474 43.9669 13.6474Z" fill="#99CFAC"/>
<path d="M12.0348 47.7988C13.5199 47.7988 14.7239 46.5948 14.7239 45.1097C14.7239 43.6246 13.5199 42.4206 12.0348 42.4206C10.5496 42.4206 9.3457 43.6246 9.3457 45.1097C9.3457 46.5948 10.5496 47.7988 12.0348 47.7988Z" fill="#99CFAC"/>
</g>
<defs>
<clipPath id="clip0_21_248">
<rect width="56" height="56" fill="white"/>
</clipPath>
</defs>
</svg>
