<svg width="56" height="56" viewBox="0 0 56 56" fill="none" xmlns="http://www.w3.org/2000/svg">
<path d="M7.33775 32.7706L23.7231 16.3853C25.8471 14.295 27.162 11.3618 27.162 8.15894C27.162 4.98977 25.8808 2.09031 23.8242 0L7.43889 16.3853C5.31487 18.4756 4 21.4088 4 24.6117C4 27.8146 5.28116 30.6803 7.33775 32.7706ZM47.0199 23.1957L30.6346 39.581C28.5105 41.6713 27.1957 44.6045 27.1957 47.8073C27.1957 50.9765 28.4768 53.876 30.5334 55.9663L46.9187 39.581C49.0427 37.4907 50.3576 34.5575 50.3576 31.3546C50.3576 28.1517 49.0765 25.286 47.0199 23.1957ZM46.9187 16.419C49.0427 14.3287 50.3576 11.3955 50.3576 8.19265C50.3576 5.02348 49.0765 2.12402 47.0199 0.0337146L7.43889 39.581C5.31487 41.705 4 44.6045 4 47.8411C4 51.0102 5.28116 53.9097 7.33775 56L46.9187 16.419Z" fill="#1292EE"/>
</svg>
