<svg width="56" height="57" viewBox="0 0 56 57" fill="none" xmlns="http://www.w3.org/2000/svg">
<g clip-path="url(#clip0_21_269)">
<path d="M42.0729 19.077V12.4635C43.8598 11.629 45.0051 9.83878 45.0138 7.86669V7.71209C45.0062 4.90135 42.7296 2.62467 39.9188 2.61712H39.7642C36.9535 2.62467 34.6768 4.90135 34.6693 7.71209V7.86669C34.678 9.83878 35.8233 11.629 37.6101 12.4635V19.0907C35.0934 19.4756 32.723 20.5186 30.7389 22.1141L12.551 7.94915C13.2649 5.27634 11.9926 2.47125 9.51146 1.24756C7.0303 0.0238748 4.03032 0.72194 2.34428 2.91529C0.658231 5.10865 0.755057 8.18725 2.5756 10.2703C4.39615 12.3534 7.43407 12.8615 9.83342 11.4844L27.7156 25.4053C24.4192 30.3785 24.5079 36.8638 27.9389 41.745L22.497 47.1869C22.0601 47.0478 21.6052 46.9737 21.1468 46.9671C18.5378 46.9671 16.4229 49.082 16.4229 51.691C16.4229 54.2999 18.5378 56.4149 21.1468 56.4149C23.7558 56.4149 25.8707 54.2999 25.8707 51.691C25.8643 51.2326 25.7902 50.7776 25.6508 50.3408L31.0344 44.9572C35.8491 48.6348 42.4415 48.9352 47.5707 45.7108C52.6999 42.4863 55.2869 36.4153 54.0599 30.4823C52.8329 24.5493 48.0501 20.0025 42.0626 19.077M39.8329 40.8655C35.7211 40.856 32.3948 37.5164 32.4018 33.4045C32.4087 29.2927 35.7463 25.9644 39.8581 25.9688C43.9699 25.9732 47.3003 29.3087 47.2985 33.4206C47.2985 37.5342 43.9637 40.8689 39.8501 40.8689" fill="#FF7959"/>
</g>
<defs>
<clipPath id="clip0_21_269">
<rect width="53.5951" height="56" fill="white" transform="translate(0.917969 0.438477)"/>
</clipPath>
</defs>
</svg>
