<svg width="56" height="56" viewBox="0 0 56 56" fill="none" xmlns="http://www.w3.org/2000/svg">
<g clip-path="url(#clip0_21_264)">
<rect x="11" y="7" width="34" height="42" fill="white"/>
<path fill-rule="evenodd" clip-rule="evenodd" d="M23.2578 1.24262C44.7129 -2.53741 50.894 1.62237 54.709 23.2683C58.5258 44.9125 54.6425 50.8485 32.6886 54.7213C10.7329 58.5906 5.05586 54.3485 1.23733 32.6974C-2.57945 11.0462 1.80608 5.0279 23.2595 1.24262H23.2578ZM25.7305 10.8064C21.6232 11.5309 18.6535 13.4175 16.9455 16.158C15.6032 18.3105 15.1762 20.8323 15.5629 22.8745C16.4187 27.3773 20.1357 30.2123 27.6678 30.7846L28.2558 30.8266L28.8403 30.8738L29.3968 30.9264C32.0218 31.1889 33.7018 31.6351 34.6293 32.2091C35.2488 32.5906 35.4974 33.0071 35.6741 34.0169C36.0119 35.9331 34.5191 37.6692 30.5886 38.3622C27.9898 38.8207 25.216 38.2694 22.1832 36.6156C21.8049 36.4094 21.3895 36.2797 20.961 36.2339C20.5325 36.1882 20.0992 36.2273 19.6858 36.349C19.2723 36.4707 18.887 36.6726 18.5516 36.9433C18.2162 37.214 17.9375 37.548 17.7312 37.9264C17.5249 38.3048 17.3952 38.7201 17.3495 39.1486C17.3037 39.5771 17.3428 40.0105 17.4645 40.4239C17.5863 40.8373 17.7882 41.2227 18.0589 41.558C18.3295 41.8934 18.6636 42.1722 19.042 42.3784C23.3208 44.7112 27.5803 45.5582 31.7296 44.8267C38.9729 43.5492 43.1624 38.6842 42.1387 32.8776C41.1656 27.3633 37.2771 24.9028 28.6985 24.278L28.1333 24.2378C25.37 24.026 23.641 23.4888 22.7275 22.8063C22.276 22.4668 22.1097 22.1675 22.01 21.6513C21.9242 21.191 22.0677 20.3475 22.514 19.63C23.2 18.531 24.537 17.6822 26.8715 17.271C28.94 16.9052 30.9403 17.257 32.9896 18.37C33.3682 18.5758 33.7836 18.705 34.2122 18.7503C34.6408 18.7955 35.074 18.7559 35.4873 18.6337C35.9005 18.5115 36.2857 18.3091 36.6207 18.038C36.9557 17.767 37.2341 17.4326 37.4399 17.054C37.6457 16.6754 37.7749 16.2599 37.8201 15.8314C37.8654 15.4028 37.8257 14.9695 37.7035 14.5563C37.5813 14.143 37.3789 13.7579 37.1079 13.4229C36.8369 13.0879 36.5025 12.8095 36.1239 12.6037C32.7936 10.7924 29.29 10.1782 25.7305 10.8064Z" fill="#F7A526"/>
</g>
<defs>
<clipPath id="clip0_21_264">
<rect width="56" height="55.9999" fill="white"/>
</clipPath>
</defs>
</svg>
