<svg width="56" height="56" viewBox="0 0 56 56" fill="none" xmlns="http://www.w3.org/2000/svg">
<g clip-path="url(#clip0_21_267)">
<path d="M35 28.0122C34.9986 30.0929 34.6182 32.0848 33.9248 33.9235C32.0863 34.6175 30.0936 34.9987 28.012 35.0001H27.988C25.9076 34.9987 23.9154 34.6186 22.0769 33.9249C21.3833 32.0867 21.0014 30.094 21 28.0127V27.9885C21.0014 25.9078 21.3825 23.9159 22.0749 22.0773C23.9142 21.3837 25.9067 21.0021 27.988 21.0007H28.012C30.0936 21.0021 32.0863 21.3837 33.9247 22.0773C34.6177 23.9161 34.9985 25.908 34.9999 27.9887V28.0129V28.0126L35 28.0122ZM55.6108 23.3334H39.2664L50.8234 11.7764C49.916 10.5021 48.9039 9.30569 47.7977 8.19966L47.7971 8.19854C46.692 7.09356 45.4967 6.08253 44.2238 5.17594L32.6668 16.7329V0.38948C31.1295 0.131169 29.5734 0.00089543 28.0146 0H27.9849C26.4262 0.000832601 24.8704 0.131013 23.3332 0.3892V16.7338L11.7762 5.17678C10.5026 6.08369 9.30687 7.09519 8.20134 8.20078L8.19714 8.20456C7.09313 9.30926 6.08299 10.5039 5.1772 11.7762L16.7342 23.3332H0.3892C0.3892 23.3332 0.00056 26.4034 0 27.9896V28.0099C0.000583243 29.5705 0.130764 31.1282 0.3892 32.6672H16.7336L5.17664 44.2242C6.99409 46.7758 9.22458 49.0063 11.7762 50.8238L23.3332 39.2671V55.6108C24.8689 55.8687 26.4233 55.9988 27.9804 56H28.0204C29.5774 55.9988 31.1316 55.8686 32.667 55.6108V39.2662L44.224 50.8232C45.4972 49.9166 46.6927 48.9055 47.798 47.8003L47.8008 47.7982C48.9057 46.6929 49.9167 45.4975 50.8234 44.2245L39.2664 32.6672H55.6108C55.8686 31.1317 55.9988 29.5775 56 28.0206V27.9804C55.9988 26.4234 55.8686 24.8693 55.6108 23.3338V23.3334Z" fill="#FF4A00"/>
</g>
<defs>
<clipPath id="clip0_21_267">
<rect width="56" height="56" fill="white"/>
</clipPath>
</defs>
</svg>
