<svg width="56" height="56" viewBox="0 0 56 56" fill="none" xmlns="http://www.w3.org/2000/svg">
<g clip-path="url(#clip0_21_327)">
<path fill-rule="evenodd" clip-rule="evenodd" d="M28 0C19.1496 0 14.7242 0 11.2665 1.47047C6.85197 3.34768 3.33774 6.8726 1.46599 11.3005C0 14.7688 0 19.1792 0 28C0 36.8207 0 41.2312 1.46599 44.6993C3.33774 49.1273 6.85197 52.6521 11.2665 54.5294C14.7242 56 19.1496 56 28 56C36.8504 56 41.2758 56 44.7335 54.5294C49.148 52.6521 52.6623 49.1273 54.534 44.6993C56 41.2312 56 36.8207 56 28C56 19.1792 56 14.7688 54.534 11.3005C52.6623 6.8726 49.148 3.34773 44.7335 1.47042C41.2758 0 36.8504 0 28 0Z" fill="url(#paint0_linear_21_327)"/>
<path fill-rule="evenodd" clip-rule="evenodd" d="M38.7648 33.7243L41.8636 36.3759C42.6232 37.0256 43.0029 37.3506 43.309 37.428C43.9349 37.5864 44.5835 37.2744 44.8656 36.6794C45.0036 36.3885 45.0036 35.8809 45.0036 34.8658V21.2357C45.0036 20.2206 45.0036 19.713 44.8656 19.4222C44.5834 18.8272 43.9349 18.5152 43.309 18.6736C43.0029 18.751 42.6232 19.076 41.8636 19.7257L38.7648 22.3773C38.2598 22.8094 38.0073 23.0255 37.8044 23.2722C37.3973 23.7677 37.1248 24.3648 37.0148 25.0031C36.96 25.3214 36.96 25.6588 36.96 26.3336V29.7679C36.96 30.4428 36.96 30.7802 37.0148 31.0984C37.1248 31.7368 37.3973 32.3339 37.8044 32.8294C38.0073 33.0763 38.2598 33.2924 38.7648 33.7243ZM11.0981 21.9615C11.0981 20.6894 11.0981 20.0533 11.3427 19.5674C11.5577 19.14 11.9009 18.7925 12.323 18.5748C12.8029 18.3271 13.4312 18.3271 14.6876 18.3271H26.1347C29.4249 18.3271 31.0701 18.3271 32.3268 18.9755C33.4322 19.5458 34.3309 20.4558 34.8943 21.5751C35.5345 22.8475 35.5345 24.5131 35.5345 27.8446V33.9366C35.5345 35.2086 35.5345 35.8446 35.29 36.3306C35.075 36.7579 34.7318 37.1054 34.3097 37.3232C33.8298 37.5708 33.2015 37.5708 31.9452 37.5708H20.4981C17.2078 37.5708 15.5626 37.5708 14.3059 36.9224C13.2005 36.3521 12.3017 35.4421 11.7385 34.323C11.0981 33.0506 11.0981 31.3849 11.0981 28.0535V21.9615Z" fill="white"/>
</g>
<defs>
<linearGradient id="paint0_linear_21_327" x1="2800" y1="0" x2="2800" y2="5600" gradientUnits="userSpaceOnUse">
<stop stop-color="#57A4FF"/>
<stop offset="1" stop-color="#347DFB"/>
</linearGradient>
<clipPath id="clip0_21_327">
<rect width="56" height="56" fill="white"/>
</clipPath>
</defs>
</svg>
