<svg width="56" height="57" viewBox="0 0 56 57" fill="none" xmlns="http://www.w3.org/2000/svg">
<path d="M38.6198 36.7538C36.8418 38.3316 34.6214 40.295 30.5954 40.295H28.1879C25.2745 40.295 22.6247 39.2361 20.728 37.3166C18.8752 35.441 17.8553 32.8741 17.8553 30.0876V26.7936C17.8553 24.0071 18.8752 21.4402 20.728 19.5647C22.6247 17.6452 25.2745 16.5879 28.1879 16.5879H30.5954C34.6263 16.5879 36.8418 18.5496 38.6198 20.1275C40.466 21.7542 42.0585 23.1759 46.3058 23.1759C46.9536 23.1758 47.6003 23.1241 48.2399 23.0214L48.2253 22.984C47.9709 22.3522 47.6724 21.7391 47.3322 21.1491L44.4937 16.2316C43.2136 14.0149 41.3726 12.1741 39.1557 10.8943C36.9388 9.61448 34.424 8.94078 31.8642 8.94089H26.1855C23.6257 8.94078 21.1109 9.61448 18.894 10.8943C16.677 12.1741 14.836 14.0149 13.556 16.2316L10.7174 21.1491C9.43781 23.3661 8.76416 25.8808 8.76416 28.4406C8.76416 31.0004 9.43781 33.5152 10.7174 35.7322L13.556 40.6496C14.836 42.8664 16.677 44.7072 18.894 45.987C21.1109 47.2668 23.6257 47.9405 26.1855 47.9404H31.8642C34.424 47.9405 36.9388 47.2668 39.1557 45.987C41.3726 44.7072 43.2136 42.8664 44.4937 40.6496L47.3322 35.7403C47.6724 35.1503 47.9709 34.5372 48.2253 33.9055L48.2399 33.8697C47.6006 33.7635 46.9538 33.7091 46.3058 33.707C42.0585 33.707 40.466 35.1206 38.6198 36.7554" fill="#006BFF"/>
<path d="M30.5955 19.5728H28.188C23.7537 19.5728 20.8403 22.7399 20.8403 26.7936V30.0876C20.8403 34.1413 23.7537 37.3084 28.188 37.3084H30.5955C37.0566 37.3084 36.5491 30.7204 46.3059 30.7204C47.2303 30.7193 48.1528 30.8043 49.0615 30.9741C49.3575 29.2981 49.3575 27.5831 49.0615 25.9071C48.1527 26.0761 47.2303 26.161 46.3059 26.1608C36.5459 26.1608 37.0566 19.5728 30.5955 19.5728Z" fill="#006BFF"/>
<path d="M54.6671 33.3815C53.0056 32.1645 51.0894 31.3408 49.0632 30.9723C49.0632 30.9902 49.0632 31.0049 49.0632 31.0211C48.8888 31.9924 48.6163 32.9434 48.2499 33.8597C49.9237 34.1189 51.5117 34.773 52.8826 35.7678C52.8826 35.7808 52.8745 35.7971 52.8696 35.8117C51.1052 41.5249 47.3501 46.4157 42.2863 49.5957C37.2226 52.7756 31.1862 54.0338 25.2737 53.1416C19.3612 52.2494 13.9649 49.2661 10.065 44.7335C6.16503 40.2009 4.02026 34.4199 4.02026 28.4404C4.02026 22.461 6.16503 16.6799 10.065 12.1473C13.9649 7.61478 19.3612 4.63143 25.2737 3.73924C31.1862 2.84706 37.2226 4.10523 42.2863 7.2852C47.3501 10.4652 51.1052 15.356 52.8696 21.0692C52.8696 21.0838 52.8777 21.1001 52.8826 21.1131C51.512 22.108 49.9238 22.7616 48.2499 23.0195C48.6158 23.937 48.8883 24.8891 49.0632 25.8613C49.0623 25.8765 49.0623 25.8917 49.0632 25.9069C51.0893 25.539 53.0055 24.7158 54.6671 23.4994C56.2645 22.3168 55.9554 20.9813 55.713 20.1908C53.7381 13.7851 49.5306 8.30052 43.8551 4.73365C38.1797 1.16678 31.413 -0.245672 24.7846 0.752962C18.1562 1.7516 12.106 5.09504 7.73342 10.1757C3.36084 15.2564 0.956055 21.7372 0.956055 28.4404C0.956055 35.1436 3.36084 41.6244 7.73342 46.7051C12.106 51.7858 18.1562 55.1293 24.7846 56.1279C31.413 57.1265 38.1797 55.7141 43.8551 52.1472C49.5306 48.5803 53.7381 43.0958 55.713 36.6901C55.9554 35.8995 56.2645 34.564 54.6671 33.3815Z" fill="#006BFF"/>
<path d="M48.2401 23.0197C47.6008 23.1259 46.954 23.1803 46.306 23.1824C42.0587 23.1824 40.4662 21.7688 38.6216 20.134C36.842 18.5561 34.6265 16.5927 30.5956 16.5927H28.1881C25.2731 16.5927 22.6249 17.6517 20.7282 19.5712C18.8754 21.4467 17.8555 24.0136 17.8555 26.8001V30.0941C17.8555 32.8806 18.8754 35.4475 20.7282 37.3231C22.6249 39.2425 25.2731 40.2999 28.1881 40.2999H30.5956C34.6265 40.2999 36.842 38.3381 38.6216 36.7602C40.4662 35.1336 42.0587 33.7119 46.306 33.7119C46.9538 33.712 47.6005 33.7637 48.2401 33.8664C48.6073 32.9504 48.8798 31.9993 49.0534 31.0278C49.0544 31.0116 49.0544 30.9953 49.0534 30.979C48.1446 30.8105 47.2222 30.7261 46.2979 30.7269C36.5378 30.7269 37.0486 37.3166 30.5874 37.3166H28.18C23.7457 37.3166 20.8323 34.1478 20.8323 30.0941V26.7936C20.8323 22.7399 23.7457 19.5728 28.18 19.5728H30.5874C37.0486 19.5728 36.5411 26.1592 46.2979 26.1592C47.2222 26.1608 48.1447 26.0764 49.0534 25.9071C49.0534 25.8924 49.0534 25.8778 49.0534 25.8615C48.8786 24.8893 48.6061 23.9372 48.2401 23.0197Z" fill="#0AE8F0"/>
<path d="M48.2401 23.0197C47.6008 23.1259 46.954 23.1803 46.306 23.1824C42.0587 23.1824 40.4662 21.7688 38.6216 20.134C36.842 18.5561 34.6265 16.5927 30.5956 16.5927H28.1881C25.2731 16.5927 22.6249 17.6517 20.7282 19.5712C18.8754 21.4467 17.8555 24.0136 17.8555 26.8001V30.0941C17.8555 32.8806 18.8754 35.4475 20.7282 37.3231C22.6249 39.2425 25.2731 40.2999 28.1881 40.2999H30.5956C34.6265 40.2999 36.842 38.3381 38.6216 36.7602C40.4662 35.1336 42.0587 33.7119 46.306 33.7119C46.9538 33.712 47.6005 33.7637 48.2401 33.8664C48.6073 32.9504 48.8798 31.9993 49.0534 31.0278C49.0544 31.0116 49.0544 30.9953 49.0534 30.979C48.1446 30.8105 47.2222 30.7261 46.2979 30.7269C36.5378 30.7269 37.0486 37.3166 30.5874 37.3166H28.18C23.7457 37.3166 20.8323 34.1478 20.8323 30.0941V26.7936C20.8323 22.7399 23.7457 19.5728 28.18 19.5728H30.5874C37.0486 19.5728 36.5411 26.1592 46.2979 26.1592C47.2222 26.1608 48.1447 26.0764 49.0534 25.9071C49.0534 25.8924 49.0534 25.8778 49.0534 25.8615C48.8786 24.8893 48.6061 23.9372 48.2401 23.0197Z" fill="#0AE8F0"/>
</svg>
