<svg width="56" height="56" viewBox="0 0 56 56" fill="none" xmlns="http://www.w3.org/2000/svg">
<path d="M27.9573 30.4791C30.1735 30.4791 32.3398 29.822 34.1824 28.5908C36.0251 27.3596 37.4612 25.6096 38.3093 23.5622C39.1574 21.5147 39.3793 19.2618 38.9469 17.0883C38.5146 14.9147 37.4474 12.9182 35.8804 11.3512C34.3134 9.78415 32.3168 8.71698 30.1433 8.28464C27.9698 7.8523 25.7168 8.07419 23.6694 8.92226C21.622 9.77034 19.872 11.2065 18.6408 13.0491C17.4096 14.8918 16.7524 17.0581 16.7524 19.2742C16.7524 22.246 17.933 25.096 20.0343 27.1973C22.1356 29.2986 24.9856 30.4791 27.9573 30.4791Z" fill="#FFCD00"/>
<path d="M28.0306 36.0754C24.2887 36.0822 20.6514 34.8406 17.6947 32.5471C14.738 30.2536 12.6309 27.0393 11.707 23.4132C11.4909 22.3028 10.9138 21.2949 10.0656 20.5463C9.21737 19.7978 8.14555 19.3505 7.01684 19.2742H2.68102e-06C-0.00160671 22.9508 0.721378 26.5918 2.12763 29.9889C3.53389 33.386 5.59584 36.4726 8.19563 39.0724C10.7954 41.6722 13.8821 43.7342 17.2792 45.1404C20.6763 46.5467 24.3172 47.2697 27.9939 47.268L28.0306 36.0754Z" fill="#00ECBB"/>
<path d="M27.957 36.0754C31.698 36.0838 35.3345 34.8425 38.2896 32.5485C41.2446 30.2546 43.3489 27.0394 44.2684 23.4132C44.4857 22.299 45.0663 21.2882 45.9194 20.5392C46.7726 19.7902 47.85 19.3453 48.9831 19.2742H55.9999C56.0015 22.9519 55.2781 26.5938 53.8711 29.9917C52.4641 33.3896 50.401 36.4768 47.7999 39.0768C45.1988 41.6767 42.1107 43.7384 38.7122 45.1439C35.3137 46.5495 31.6715 47.2713 27.9938 47.268L27.957 36.0754Z" fill="#AF64FF"/>
<path d="M47.7586 39.0756C42.5071 44.3229 35.3871 47.2704 27.9633 47.2704C20.5395 47.2704 13.4195 44.3229 8.16797 39.0756L16.091 31.1526C17.6492 32.7133 19.4998 33.9514 21.537 34.7962C23.5742 35.6409 25.7579 36.0757 27.9633 36.0757C30.1687 36.0757 32.3524 35.6409 34.3896 34.7962C36.4267 33.9514 38.2774 32.7133 39.8356 31.1526L47.7586 39.0756Z" fill="#7131FF"/>
</svg>
