<svg width="56" height="56" viewBox="0 0 56 56" fill="none" xmlns="http://www.w3.org/2000/svg">
<path d="M49.6309 1H6.36906C2.85153 1 0 3.85153 0 7.36906V48.3301C0 51.8476 2.85153 54.6992 6.36906 54.6992H49.6309C53.1485 54.6992 56 51.8476 56 48.3301V7.36906C56 3.85153 53.1485 1 49.6309 1Z" fill="black"/>
<path d="M12.7696 19.2013H17.6738C20.4826 19.2013 22.2436 20.8126 22.2436 23.3794C22.2436 25.9811 20.5765 27.5177 17.7295 27.5177H12.7696V19.2013ZM12.7696 31.863H17.3952L22.4331 41.6586H28.8372L23.1448 30.9824C26.2529 29.7468 28.0522 26.7502 28.0522 23.3029C28.0522 17.929 24.3995 14.6331 18.462 14.6331H7.1123V41.6586H12.7696V31.863ZM39.5436 24.7264C42.0912 24.7264 43.7376 26.4302 43.8507 29.1657H35.0486C35.2349 26.4875 37.0151 24.7264 39.5436 24.7264ZM43.9637 35.7768C43.3825 37.1445 41.9033 37.912 39.749 37.912C36.902 37.912 35.1043 36.0013 35.0295 32.9298V32.6495H49.207V30.9824C49.207 24.4271 45.6117 20.5499 39.5245 20.5499C33.3815 20.5499 29.5983 24.7089 29.5983 31.4315C29.5983 38.1365 33.3067 42.1076 39.5993 42.1076C44.6563 42.1076 48.2135 39.6714 49.0383 35.7768H43.9637Z" fill="#F0F9FF"/>
</svg>
