<svg width="56" height="56" viewBox="0 0 56 56" fill="none" xmlns="http://www.w3.org/2000/svg">
<g clip-path="url(#clip0_21_357)">
<path d="M28 56C43.464 56 56 43.464 56 28C56 12.536 43.464 0 28 0C12.536 0 0 12.536 0 28C0 43.464 12.536 56 28 56Z" fill="#4DB7C6"/>
<path d="M23.9144 47.8812C30.2081 47.8812 36.2322 43.1951 36.2322 37.5737C36.2322 30.2116 22.7096 27.1297 22.7096 20.5697C22.7096 15.6173 28.8668 11.3306 33.553 11.3306C35.9626 11.3306 37.0343 12.6685 37.0343 14.4092C37.0343 16.1499 35.5632 17.4878 34.0888 18.5595C32.0819 20.0306 34.7578 21.505 37.5702 19.498C39.3271 18.2802 40.376 16.2798 40.3825 14.1429C40.3825 10.2589 37.7033 8.11877 33.553 8.11877C26.5903 8.11877 18.5593 14.0098 18.5593 21.1056C18.5593 29.4062 32.0819 32.3517 32.0819 38.1095C32.0819 42.1267 27.6653 44.4032 24.0475 44.4032C21.6379 44.4032 19.6309 43.3315 19.6309 41.4577C19.6309 40.5191 20.0336 39.5839 20.5695 38.7785C22.0406 36.502 19.9005 35.164 17.7571 36.6351C16.6854 37.4373 15.6138 39.4475 15.6138 41.3213C15.6138 45.7379 19.4978 47.8812 23.9144 47.8812Z" fill="white"/>
</g>
<defs>
<clipPath id="clip0_21_357">
<rect width="56" height="56" fill="white"/>
</clipPath>
</defs>
</svg>
